<svg id="Layer_1" xmlns="http://www.w3.org/2000/svg" viewBox="0 0 22 22"><path d="M11 0C4.9 0 0 4.9 0 11s4.9 11 11 11 11-4.9 11-11S17.1 0 11 0zm8.3 5.8c.8 1.3 1.3 2.9 1.4 4.6h-4.1c1.2-1.4 2.1-2.9 2.7-4.6zm-.8-1.1c-.6 2-1.7 3.9-3.1 5.5-.5-.6-1-1.2-1.5-1.9 1-1.8 1.7-3.7 1.9-5.8 1 .5 1.9 1.3 2.7 2.2zm-6.4 2.9c.3-.4.5-.9.7-1.3-.7-1.6-1.1-3.3-1.2-5.1 1.1.1 2.1.3 3.1.7-.3 3.1-1.6 5.9-3.7 8.2-.5-.6-1-1.2-1.5-1.9.7-1 1.2-2.2 1.5-3.4.3 1 .7 1.9 1.1 2.8zM6.2 2.5C6.4 4.3 7 6 7.8 7.6c.3-.4.5-.8.7-1.3-.6-1.3-1-2.8-1.2-4.4 1-.4 2-.6 3.1-.7-.2 3.3-1.5 6.5-3.7 8.9-1.5-1.6-2.6-3.4-3.2-5.4.8-.9 1.7-1.7 2.7-2.2zM3.5 17.3c.6-1.8 1.5-3.5 2.7-5-.1-.1-.2-.3-.4-.5l-.4-.4c-1.2 1.4-2.1 3-2.8 4.7-.8-1.3-1.3-2.9-1.4-4.6h3.3c.1-.2.3-.4.4-.5H5c-.2-.2-.3-.4-.5-.6H1.2c.1-1.7.6-3.2 1.4-4.6.8 2.1 2 4 3.6 5.6.7.7 1.4 1.5 1.9 2.3-1 1.8-1.7 3.7-1.9 5.8-1-.5-1.9-1.3-2.7-2.2zm6.4-2.9c-.3.4-.5.8-.7 1.3.7 1.6 1.1 3.3 1.2 5.1-1.1-.1-2.1-.3-3.1-.7.3-2.9 1.4-5.6 3.3-7.8-.1-.2-.3-.3-.4-.5l-.4-.4-.9 1.2c-.5-.5-.9-1.1-1.4-1.6.5-.5.9-1.1 1.3-1.7.5.7 1.1 1.4 1.7 2.1.7.7 1.4 1.5 1.9 2.3-.6 1.1-1.1 2.2-1.5 3.4-.2-.9-.6-1.8-1-2.7zm5.9 5.1c-.2-1.8-.8-3.6-1.6-5.2-.3.4-.5.8-.7 1.3.6 1.4 1 2.9 1.2 4.4-1 .4-2 .6-3.1.7.1-3.1 1.3-6.1 3.3-8.5-.1-.2-.3-.3-.4-.5l-.4-.4-.9 1.2c-.4-.6-.9-1.1-1.3-1.7.5-.5.9-1.1 1.3-1.7.5.7 1.1 1.4 1.7 2.1 1.7 1.7 2.9 3.7 3.6 5.9-.8 1.1-1.7 1.9-2.7 2.4zm3.5-3.3c-.6-1.6-1.5-3.2-2.6-4.6h4.1c-.1 1.7-.6 3.2-1.5 4.6z"/></svg>