<svg id="Layer_1" xmlns="http://www.w3.org/2000/svg" viewBox="-223 384.5 165 24.5"><path d="M-101.8 407.8c-1.8.3-3.7-2.6-4.4-6.6-.7-3.9.2-7.4 1.9-7.7 1.8-.3 3.7 2.6 4.4 6.6.7 3.9-.1 7.4-1.9 7.7m-1.2-15.5c-4 0-7.3 3.7-7.3 8.3s3.3 8.3 7.3 8.3 7.3-3.7 7.3-8.3c-.1-4.6-3.3-8.3-7.3-8.3"/><path d="M-198.7 393.5c1.5-.3 2.9 1.5 3.2 4.5h-5.4c.2-2.5 1-4.3 2.2-4.5m3.7 13c-2.5.4-5.1-1.9-5.7-5.3-.1-.7-.2-1.3-.2-1.9h9.5c0-3.9-2.7-7-6.1-7-4 0-7.3 3.7-7.3 8.3s3.3 8.3 7.3 8.3c2.8 0 5.3-1.9 6.5-4.6l-.9-.5c-.6 1.5-1.7 2.5-3.1 2.7"/><path d="M-183.2 398.1c-2-.7-3-1.2-3.3-2.6-.2-1 .4-1.9 1.3-2.1 1.3-.2 2.7 1.3 3.7 3.8h1.1v-4c-1-.7-2.2-1-3.7-1-2.7 0-4.8 1.9-4.8 4.3 0 2.5 1.4 4.3 4 5.2 2.8.9 3.6 2.3 3.8 3.5.2 1.2-.5 2.3-1.5 2.5-2.3.4-4.6-1.5-5.5-4.5h-1.1v3.9c1.4 1.1 3.2 1.7 5.1 1.7 3.4 0 5.9-2.1 5.9-5.1 0-2.9-2-4.6-5-5.6"/><path d="M-160.8 393.5c1.5-.3 2.9 1.5 3.2 4.5h-5.4c.1-2.5.9-4.3 2.2-4.5m3.7 13c-2.5.4-5.1-1.9-5.7-5.3-.1-.7-.2-1.3-.2-1.9h9.5c0-3.9-2.7-7-6.1-7-4 0-7.3 3.7-7.3 8.3s3.3 8.3 7.3 8.3c2.8 0 5.3-1.9 6.5-4.6l-.9-.5c-.6 1.5-1.7 2.5-3.1 2.7"/><path d="M-171.4 387.7l-6.7 5.6v.6h2.7v10.8c0 2.4 1.8 4.3 4 4.3 1.6 0 3.1-.6 4-1.5v-1.1c-.6.3-1.3.4-2 .4-1.1 0-2-1-2-2.2v-10.7h4v-1.3h-4v-4.9z"/><path d="M-207 384.5l1.4 4-4.9 14.4-5-14.4 1.5-4h-9l2.9 4 7.4 20.3h1.5l7.4-20.3 2.9-4h-6.1z"/><path d="M-64 405.1c-.5.7-1.1 1.2-1.8 1.3-2 .3-4-2-4.6-5.2-.7-3.9.6-7.5 2.9-7.9 1.4-.2 2.6.7 3.6 2.3l-.1 9.5zm4 .9v-21.5h-6l2 2.7v6c-1-.6-2.1-.9-3.2-.9-4 0-7.3 3.7-7.3 8.3s2.8 8.3 6.3 8.3c1.6 0 3.1-.8 4.2-2.2l.3 1.9h5.7l-2-2.6z"/><path d="M-83.1 384.5l2 2.7V406l-2 2.7h8l-2-2.7v-21.5h-6z"/><path d="M-113 384.5l1.1 4-3.1 12.5-4.2-16.5h-4.7l1.1 4-3.1 12.5-3.1-12.5 1.1-4h-7.7l2.2 4 5.4 20.3h1.4l4.7-17.3 4.8 17.3h1.4l5.4-20.3 2.2-4h-4.9z"/><path d="M-85.1 392.3c-1.5 0-3 .9-3.9 2.2l-.3-1.9H-95l2 2.7v10.8l-2 2.7h8l-2-2.7v-7.4c0-1.9.8-3.7 2.1-4.6-.1.3-.1.6 0 .9.2 1.2 1.3 2.1 2.4 1.9 1.1-.2 1.8-1.4 1.6-2.6-.2-1.2-1-2-2.2-2"/><path d="M-141.3 405.1c-.5.7-1.1 1.2-1.8 1.3-2 .3-4-2-4.6-5.2-.7-3.9.6-7.5 2.9-7.9 1.4-.2 2.6.7 3.6 2.3l-.1 9.5zm4.1.9v-21.5h-6l2 2.7v6c-1-.6-2.1-.9-3.2-.9-4 0-7.3 3.7-7.3 8.3s2.8 8.3 6.3 8.3c1.6 0 3.1-.8 4.2-2.2l.3 1.9h5.7l-2-2.6z"/></svg>