<svg id="Layer_1" xmlns="http://www.w3.org/2000/svg" xmlns:xlink="http://www.w3.org/1999/xlink" viewBox="0 0 165 24.5"><defs><path id="SVGID_1_" d="M0 0h165v24.5H0z"/></defs><clipPath id="SVGID_2_"><use xlink:href="#SVGID_1_" overflow="visible"/></clipPath><path d="M121.2 23.3c-1.8.3-3.7-2.6-4.4-6.6-.7-3.9.2-7.4 1.9-7.7 1.8-.3 3.7 2.6 4.4 6.6.7 3.9-.1 7.4-1.9 7.7M120 7.8c-4 0-7.3 3.7-7.3 8.3 0 4.6 3.3 8.3 7.3 8.3s7.3-3.7 7.3-8.3c-.1-4.6-3.3-8.3-7.3-8.3" clip-path="url(#SVGID_2_)"/><path d="M24.3 9c1.5-.3 2.9 1.5 3.2 4.5h-5.4c.2-2.5 1-4.3 2.2-4.5M28 22c-2.5.4-5.1-1.9-5.7-5.3-.1-.7-.2-1.3-.2-1.9h9.5c0-3.9-2.7-7-6.1-7-4 0-7.3 3.7-7.3 8.3 0 4.6 3.3 8.3 7.3 8.3 2.8 0 5.3-1.9 6.5-4.6l-.9-.5c-.6 1.5-1.7 2.5-3.1 2.7" clip-path="url(#SVGID_2_)"/><path d="M62.2 9c1.5-.3 2.9 1.5 3.2 4.5H60c.1-2.5.9-4.3 2.2-4.5m3.7 13c-2.5.4-5.1-1.9-5.7-5.3-.1-.7-.2-1.3-.2-1.9h9.5c0-3.9-2.7-7-6.1-7-4 0-7.3 3.7-7.3 8.3 0 4.6 3.3 8.3 7.3 8.3 2.8 0 5.3-1.9 6.5-4.6l-.9-.5c-.6 1.5-1.7 2.5-3.1 2.7" clip-path="url(#SVGID_2_)"/><path d="M39.8 13.6c-2-.7-3-1.2-3.3-2.6-.2-1 .4-1.9 1.3-2.1 1.3-.2 2.7 1.3 3.7 3.8h1.1v-4c-1-.7-2.2-1-3.7-1-2.7 0-4.8 1.9-4.8 4.3 0 2.5 1.4 4.3 4 5.2 2.8.9 3.6 2.3 3.8 3.5.2 1.2-.5 2.3-1.5 2.5-2.3.4-4.6-1.5-5.5-4.5h-1.1v3.9c1.4 1.1 3.2 1.7 5.1 1.7 3.4 0 5.9-2.1 5.9-5.1 0-2.9-2-4.6-5-5.6" clip-path="url(#SVGID_2_)"/><path d="M51.6 3.2l-6.7 5.6v.6h2.7v10.8c0 2.4 1.8 4.3 4 4.3 1.6 0 3.1-.6 4-1.5v-1.1c-.6.3-1.3.4-2 .4-1.1 0-2-1-2-2.2V9.4h4V8.1h-4V3.2z" clip-path="url(#SVGID_2_)"/><path d="M16 0l1.4 4-4.9 14.4L7.5 4 9 0H0l2.9 4 7.4 20.3h1.5L19.2 4l2.9-4z"/><defs><path id="SVGID_3_" d="M0 0h165v24.5H0z"/></defs><clipPath id="SVGID_4_"><use xlink:href="#SVGID_3_" overflow="visible"/></clipPath><path d="M159 20.6c-.5.7-1.1 1.2-1.8 1.3-2 .3-4-2-4.6-5.2-.7-3.9.6-7.5 2.9-7.9 1.4-.2 2.6.7 3.6 2.3v9.5zm4 .9V0h-6l2 2.7v6c-1-.6-2.1-.9-3.2-.9-4 0-7.3 3.7-7.3 8.3 0 4.6 2.8 8.3 6.3 8.3 1.6 0 3.1-.8 4.2-2.2l.3 1.9h5.7l-2-2.6z" clip-path="url(#SVGID_4_)"/><path d="M139.9 0l2 2.7v18.8l-2 2.7h8l-2-2.7V0z"/><path d="M110 0l1.1 4-3.1 12.5L103.8 0h-4.7l1.1 4-3.1 12.5L94 4l1.1-4h-7.7l2.2 4L95 24.3h1.4L101.1 7l4.8 17.3h1.4L112.7 4l2.2-4z"/><defs><path id="SVGID_5_" d="M0 0h165v24.5H0z"/></defs><clipPath id="SVGID_6_"><use xlink:href="#SVGID_5_" overflow="visible"/></clipPath><path d="M137.9 7.8c-1.5 0-3 .9-3.9 2.2l-.3-1.9H128l2 2.7v10.8l-2 2.7h8l-2-2.7v-7.4c0-1.9.8-3.7 2.1-4.6-.1.3-.1.6 0 .9.2 1.2 1.3 2.1 2.4 1.9 1.1-.2 1.8-1.4 1.6-2.6-.2-1.2-1-2-2.2-2" clip-path="url(#SVGID_6_)"/><path d="M81.7 20.6c-.5.7-1.1 1.2-1.8 1.3-2 .3-4-2-4.6-5.2-.7-3.9.6-7.5 2.9-7.9 1.4-.2 2.6.7 3.6 2.3v9.5zm4.1.9V0h-6l2 2.7v6c-1-.6-2.1-.9-3.2-.9-4 0-7.3 3.7-7.3 8.3 0 4.6 2.8 8.3 6.3 8.3 1.6 0 3.1-.8 4.2-2.2l.3 1.9h5.7l-2-2.6z" clip-path="url(#SVGID_6_)"/></svg>