<svg xmlns="http://www.w3.org/2000/svg"><symbol id="icon-connect"><rect width="100%" height="100%" fill="gray"/><path stroke="#dcdcdc" d="M0 0l100 100"/><path stroke="#dcdcdc" d="M100 0L0 100"/><text x="50" y="55" font-size="20" fill="#fff" text-anchor="middle">Connect</text></symbol><symbol id="icon-invest"><rect width="100%" height="100%" fill="gray"/><path stroke="#dcdcdc" d="M0 0l100 100"/><path stroke="#dcdcdc" d="M100 0L0 100"/><text x="50" y="55" font-size="20" fill="#fff" text-anchor="middle">Invest</text></symbol><symbol id="icon-logo"><rect width="100%" height="100%" fill="gray"/><path stroke="#dcdcdc" d="M0 0l50 50"/><path stroke="#dcdcdc" d="M50 0L0 50"/><text x="25" y="27" font-size="10" fill="#fff" text-anchor="middle">Logo</text></symbol><symbol id="icon-target"><rect width="100%" height="100%" fill="gray"/><path stroke="#dcdcdc" d="M0 0l100 100"/><path stroke="#dcdcdc" d="M100 0L0 100"/><text x="50" y="55" font-size="20" fill="#fff" text-anchor="middle">Target</text></symbol><symbol id="icon-vestedworld"><rect width="100%" height="100%" fill="gray"/><path stroke="#dcdcdc" d="M0 0l100 50"/><path stroke="#dcdcdc" d="M100 0L0 50"/><text x="50" y="30" font-size="12" fill="#fff" text-anchor="middle">VestedWorld</text></symbol></svg>